<svg width="81" height="80" viewBox="0 0 81 80" fill="none" xmlns="http://www.w3.org/2000/svg">
<path opacity="0.3" d="M80.5 40C80.5 62.0914 62.5914 80 40.5 80C18.4086 80 0.5 62.0914 0.5 40C0.5 17.9086 18.4086 0 40.5 0C62.5914 0 80.5 17.9086 80.5 40ZM11.4071 40C11.4071 56.0675 24.4325 69.0929 40.5 69.0929C56.5675 69.0929 69.5929 56.0675 69.5929 40C69.5929 23.9325 56.5675 10.9071 40.5 10.9071C24.4325 10.9071 11.4071 23.9325 11.4071 40Z" fill="#2F2E30"/>
<circle cx="40.5" cy="40" r="29" fill="black"/>
<g clip-path="url(#clip0_3236_967)">
<path d="M33.8332 45C33.8332 43.159 32.3408 41.6666 30.4998 41.6666C28.6589 41.6666 27.1665 43.159 27.1665 45V48.3333C27.1665 50.1742 28.6589 51.6666 30.4998 51.6666C32.3408 51.6666 33.8332 50.1742 33.8332 48.3333V45Z" stroke="white" stroke-width="2" stroke-linecap="round" stroke-linejoin="round"/>
<path d="M53.8332 45C53.8332 43.159 52.3408 41.6666 50.4998 41.6666C48.6589 41.6666 47.1665 43.159 47.1665 45V48.3333C47.1665 50.1742 48.6589 51.6666 50.4998 51.6666C52.3408 51.6666 53.8332 50.1742 53.8332 48.3333V45Z" stroke="white" stroke-width="2" stroke-linecap="round" stroke-linejoin="round"/>
<path d="M27.1665 45V40C27.1665 36.4637 28.5713 33.0724 31.0717 30.5719C33.5722 28.0714 36.9636 26.6666 40.4998 26.6666C44.0361 26.6666 47.4274 28.0714 49.9279 30.5719C52.4284 33.0724 53.8332 36.4637 53.8332 40V45" stroke="white" stroke-width="2" stroke-linecap="round" stroke-linejoin="round"/>
<path d="M50.5 51.6666C50.5 52.9927 49.4464 54.2645 47.5711 55.2022C45.6957 56.1398 43.1522 56.6666 40.5 56.6666" stroke="white" stroke-width="2" stroke-linecap="round" stroke-linejoin="round"/>
</g>
<defs>
<clipPath id="clip0_3236_967">
<rect width="40" height="40" fill="white" transform="translate(20.5 20)"/>
</clipPath>
</defs>
</svg>
