<svg width="81" height="80" viewBox="0 0 81 80" fill="none" xmlns="http://www.w3.org/2000/svg">
<path opacity="0.3" d="M80.5 40C80.5 62.0914 62.5914 80 40.5 80C18.4086 80 0.5 62.0914 0.5 40C0.5 17.9086 18.4086 0 40.5 0C62.5914 0 80.5 17.9086 80.5 40ZM11.4071 40C11.4071 56.0675 24.4325 69.0929 40.5 69.0929C56.5675 69.0929 69.5929 56.0675 69.5929 40C69.5929 23.9325 56.5675 10.9071 40.5 10.9071C24.4325 10.9071 11.4071 23.9325 11.4071 40Z" fill="#2F2E30"/>
<circle cx="40.5" cy="40" r="29" fill="black"/>
<path d="M28.5989 50.5994L28.5987 50.5992C27.726 49.9485 26.9254 48.9207 26.3426 47.7591C25.7597 46.5974 25.4165 45.3452 25.4165 44.2667V31.8667C25.4165 29.5075 27.1713 26.9619 29.391 26.1353L29.392 26.1349L37.7082 23.0184C37.7083 23.0184 37.7084 23.0183 37.7085 23.0183C38.4619 22.7367 39.4614 22.5875 40.4832 22.5875C41.5049 22.5875 42.5044 22.7367 43.2579 23.0183C43.258 23.0183 43.258 23.0184 43.2581 23.0184L51.5744 26.1349L51.5753 26.1353C53.795 26.9619 55.5498 29.5075 55.5498 31.8667V44.25C55.5498 45.3372 55.2064 46.5893 54.6239 47.7484C54.0414 48.9074 53.2409 49.9314 52.3676 50.5825L52.3674 50.5827L45.2007 55.9327L45.2007 55.9326L45.1945 55.9374C43.9118 56.9265 42.2239 57.4334 40.4998 57.4334C38.7772 57.4334 37.085 56.9271 35.7647 55.9487C35.7645 55.9486 35.7644 55.9484 35.7642 55.9483L28.5989 50.5994ZM38.2417 24.4316L38.241 24.4318L29.9244 27.5485L29.9237 27.5488C29.0961 27.8603 28.3549 28.5226 27.8239 29.2907C27.2928 30.0591 26.9332 30.9899 26.9332 31.8834V44.2667C26.9332 45.1612 27.2438 46.1893 27.7008 47.1011C28.1576 48.0127 28.7931 48.8723 29.5007 49.4007L29.5007 49.4007L36.6671 54.7504C37.7291 55.5446 39.1281 55.925 40.5019 55.925C41.8759 55.925 43.2781 55.5446 44.3476 54.7517L44.3489 54.7507L51.5156 49.4007L51.5165 49.4C52.2313 48.864 52.8667 48.0051 53.3221 47.0945C53.7774 46.1838 54.0832 45.1601 54.0832 44.2667V31.8667C54.0832 30.9805 53.7227 30.0539 53.1924 29.2866C52.6619 28.519 51.9221 27.8541 51.0975 27.5339L51.0975 27.5339L51.092 27.5318L42.7753 24.4152L42.7753 24.4151L42.7662 24.4119C42.1281 24.1866 41.3 24.0833 40.5006 24.0854C39.7019 24.0876 38.875 24.1953 38.2417 24.4316Z" fill="#FAFAFA" stroke="#FAFAFA"/>
<path d="M37.913 41.0536L38.2666 41.4071L38.6201 41.0536L44.9035 34.7703C45.1915 34.4822 45.6749 34.4822 45.963 34.7703C46.2511 35.0583 46.2511 35.5417 45.963 35.8298L38.7963 42.9965C38.6451 43.1478 38.4578 43.2167 38.2666 43.2167C38.0754 43.2167 37.8881 43.1478 37.7368 42.9965L35.0535 40.3131C34.7654 40.0251 34.7654 39.5417 35.0535 39.2536C35.3415 38.9655 35.8249 38.9655 36.113 39.2536L37.913 41.0536Z" fill="#FAFAFA" stroke="#FAFAFA"/>
</svg>
